<svg width="261" height="234" viewBox="0 0 261 234" fill="none" xmlns="http://www.w3.org/2000/svg">
<g filter="url(#filter0_i_3_36)">
<path d="M129 56.5C169.696 56.5 202.5 83.2319 202.5 116C202.5 148.768 169.696 175.5 129 175.5C88.3039 175.5 55.4999 148.768 55.4999 116C55.4999 83.2319 88.3039 56.5 129 56.5Z" fill="url(#paint0_linear_3_36)" stroke="black"/>
<path d="M127.457 17.7763C127.627 15.9419 128.073 13.9806 128.194 13.1071C128.185 12.14 128.158 11.2679 128.083 10.6272C127.988 10.2355 127.885 9.8541 127.774 9.46361C127.093 7.05823 126.234 4.70183 125.479 2.31846C125.168 1.33783 125.03 0.701889 125.343 1.14205C125.801 1.7871 126.96 3.96447 128.146 6.28964C129.352 8.65341 131.048 11.3613 132.495 13.2202C134.499 15.794 135.786 18.518 138.042 20.5752C139.529 21.9317 141.042 22.4831 142.617 23.8604C144.333 25.3606 145.785 26.4218 146.731 28.0758C147.881 30.0838 150.879 33.2797 150.962 40.8998C151.072 50.9399 151.004 53.2214 149.924 54.941C147.86 58.2263 145.785 62.2512 139.56 63.7232C134.458 64.9297 129.102 66.2816 124.233 62.6324C119.258 58.9035 115.212 53.6126 113.785 50.4213C112.985 48.634 112.73 44.3305 113.332 41.3498C113.678 39.6332 114.589 37.921 115.794 36.2065C117 34.4899 119.005 32.9954 122.032 28.843C123.746 26.4921 124.876 25.0586 125.801 22.9904C126.6 21.2031 127.291 19.5521 127.457 17.7763Z" fill="#F3E30A"/>
<path d="M128.199 13.0681C128.086 13.921 127.63 15.914 127.457 17.7763C127.291 19.5521 126.6 21.2031 125.801 22.9904C124.876 25.0586 123.746 26.4921 122.032 28.843C119.005 32.9954 117 34.4899 115.794 36.2065C114.589 37.921 113.678 39.6332 113.332 41.3498C112.73 44.3305 112.985 48.634 113.785 50.4213C115.212 53.6126 119.258 58.9035 124.233 62.6324C129.102 66.2816 134.458 64.9297 139.56 63.7232C145.785 62.2512 147.86 58.2263 149.924 54.941C151.004 53.2214 151.072 50.9399 150.962 40.8998C150.879 33.2797 147.881 30.0838 146.731 28.0758C145.785 26.4218 144.333 25.3606 142.617 23.8604C141.042 22.4831 139.529 21.9317 138.042 20.5752C135.786 18.518 134.499 15.794 132.495 13.2202C131.048 11.3613 129.352 8.65341 128.146 6.28964C126.96 3.96447 125.801 1.7871 125.343 1.14205C125.03 0.701889 125.168 1.33783 125.479 2.31846C126.234 4.70183 127.093 7.05823 127.774 9.46361C127.885 9.8541 127.988 10.2355 128.083 10.6272C128.199 11.6237 128.199 13.1795 128.199 14.7825" stroke="black" stroke-width="2" stroke-linecap="round"/>
<path d="M65.192 32.1544C64.5714 30.4197 64.1462 28.454 63.8871 27.611C63.4697 26.7385 63.0769 25.9595 62.7381 25.4104C62.4869 25.0954 62.2322 24.7934 61.9668 24.4863C60.3324 22.5944 58.5585 20.8215 56.867 18.9806C56.171 18.2231 55.7771 17.7051 56.2464 17.9719C56.9342 18.3629 58.9047 19.8465 60.9625 21.4525C63.0546 23.0851 65.7359 24.8226 67.8331 25.8957C70.7369 27.3815 73.0546 29.3063 75.9683 30.2175C77.8897 30.8183 79.4939 30.6787 81.5036 31.2613C83.6924 31.8958 85.4566 32.2441 87.0136 33.343C88.904 34.6772 92.9717 36.3066 96.2676 43.1775C100.61 52.2306 101.513 54.3268 101.261 56.3419C100.779 60.1916 100.599 64.7164 95.5795 68.6812C91.4653 71.931 87.1824 75.4198 81.2274 74.1702C75.1424 72.8933 69.24 69.8077 66.5976 67.5187C65.1177 66.2368 63.0677 62.4443 62.3534 59.4886C61.942 57.7864 62.0438 55.8496 62.4109 53.7867C62.7786 51.7213 63.9638 49.5195 64.9525 44.4768C65.5122 41.6219 65.9307 39.845 65.8951 37.5796C65.8643 35.6219 65.7927 33.8337 65.192 32.1544Z" fill="#F3E30A"/>
<path d="M63.8754 27.5734C64.1333 28.3942 64.562 30.3934 65.192 32.1544C65.7927 33.8337 65.8643 35.6219 65.8951 37.5796C65.9307 39.845 65.5122 41.6219 64.9525 44.4768C63.9638 49.5195 62.7785 51.7213 62.4109 53.7867C62.0438 55.8496 61.942 57.7864 62.3534 59.4886C63.0677 62.4443 65.1177 66.2368 66.5976 67.5187C69.24 69.8077 75.1424 72.8933 81.2274 74.1702C87.1824 75.4198 91.4653 71.931 95.5795 68.6812C100.599 64.7164 100.779 60.1916 101.261 56.3419C101.513 54.3268 100.61 52.2306 96.2676 43.1775C92.9717 36.3066 88.904 34.6772 87.0136 33.343C85.4566 32.2441 83.6924 31.8958 81.5036 31.2613C79.4939 30.6787 77.8897 30.8183 75.9683 30.2175C73.0546 29.3063 70.7369 27.3815 67.8331 25.8957C65.7359 24.8226 63.0546 23.0851 60.9625 21.4525C58.9047 19.8465 56.9342 18.3629 56.2464 17.9719C55.7771 17.7051 56.171 18.2231 56.867 18.9806C58.5585 20.8215 60.3324 22.5944 61.9668 24.4863C62.2322 24.7934 62.4869 25.0954 62.7381 25.4104C63.265 26.2643 63.9225 27.6744 64.6 29.1272" stroke="black" stroke-width="2" stroke-linecap="round"/>
<path d="M215.356 48.306C217.172 47.996 219.182 47.9186 220.057 47.8099C220.989 47.5503 221.824 47.2988 222.424 47.0605C222.778 46.8677 223.119 46.6694 223.468 46.4614C225.615 45.1803 227.669 43.7412 229.776 42.395C230.642 41.8411 231.221 41.5432 230.877 41.9591C230.372 42.5685 228.569 44.2514 226.63 45.9992C224.659 47.7759 222.482 50.1147 221.061 51.9938C219.094 54.5955 216.796 56.5437 215.392 59.2549C214.467 61.0428 214.326 62.6469 213.403 64.5248C212.398 66.5703 211.749 68.2471 210.396 69.5897C208.754 71.2197 206.443 74.9426 199.104 76.9953C189.435 79.7 187.214 80.2253 185.273 79.6269C181.565 78.4836 177.141 77.5208 174.108 71.8891C171.622 67.273 168.93 62.4493 171.194 56.8018C173.508 51.0309 177.572 45.7541 180.285 43.5493C181.805 42.3145 185.895 40.9541 188.93 40.7639C190.678 40.6544 192.568 41.091 194.535 41.8108C196.506 42.5315 198.468 44.081 203.263 45.9303C205.977 46.9774 207.654 47.698 209.891 48.0563C211.825 48.366 213.598 48.606 215.356 48.306Z" fill="#F3E30A"/>
<path d="M220.096 47.8049C219.243 47.9163 217.2 47.9913 215.356 48.306C213.598 48.606 211.825 48.3659 209.891 48.0563C207.654 47.698 205.977 46.9774 203.263 45.9303C198.468 44.081 196.506 42.5315 194.535 41.8108C192.568 41.091 190.678 40.6544 188.93 40.7639C185.895 40.9541 181.805 42.3145 180.285 43.5493C177.572 45.7541 173.508 51.0309 171.194 56.8018C168.93 62.4493 171.622 67.273 174.108 71.8891C177.141 77.5208 181.565 78.4836 185.273 79.6269C187.214 80.2253 189.435 79.7 199.104 76.9953C206.443 74.9426 208.754 71.2197 210.396 69.5897C211.749 68.2471 212.398 66.5703 213.403 64.5248C214.326 62.6469 214.467 61.0428 215.392 59.2549C216.796 56.5437 219.094 54.5955 221.061 51.9938C222.482 50.1147 224.659 47.7759 226.63 45.9992C228.569 44.2514 230.372 42.5685 230.877 41.9591C231.221 41.5432 230.642 41.8411 229.776 42.395C227.669 43.7412 225.615 45.1803 223.468 46.4614C223.119 46.6694 222.778 46.8677 222.424 47.0605C221.491 47.4311 219.989 47.8338 218.44 48.2486" stroke="black" stroke-width="2" stroke-linecap="round"/>
<path d="M216.04 180.614C217.216 182.032 218.288 183.734 218.82 184.438C219.511 185.115 220.146 185.712 220.652 186.112C220.996 186.323 221.339 186.519 221.693 186.717C223.876 187.936 226.149 188.995 228.369 190.147C229.282 190.62 229.829 190.972 229.297 190.882C228.517 190.75 226.158 190.03 223.675 189.224C221.15 188.406 218.036 187.69 215.699 187.399C212.462 186.996 209.626 185.98 206.576 186.12C204.565 186.213 203.105 186.893 201.017 187.033C198.744 187.185 196.967 187.461 195.128 186.961C192.895 186.354 188.515 186.214 183.068 180.885C175.891 173.863 174.326 172.202 173.874 170.222C173.01 166.44 171.631 162.126 174.992 156.684C177.747 152.223 180.578 147.479 186.601 146.617C192.756 145.736 199.358 146.616 202.624 147.864C204.453 148.562 207.676 151.425 209.359 153.958C210.327 155.417 210.894 157.272 211.255 159.336C211.616 161.402 211.255 163.877 212.05 168.953C212.501 171.828 212.715 173.64 213.524 175.757C214.222 177.586 214.901 179.242 216.04 180.614Z" fill="#F3E30A"/>
<path d="M218.844 184.469C218.321 183.786 217.234 182.054 216.04 180.614C214.901 179.242 214.222 177.586 213.524 175.757C212.715 173.64 212.501 171.828 212.05 168.953C211.255 163.877 211.616 161.402 211.255 159.336C210.894 157.272 210.327 155.417 209.359 153.958C207.676 151.425 204.453 148.562 202.624 147.864C199.358 146.616 192.756 145.736 186.601 146.617C180.578 147.479 177.747 152.223 174.992 156.684C171.631 162.126 173.01 166.44 173.874 170.222C174.326 172.202 175.891 173.863 183.068 180.885C188.515 186.214 192.895 186.354 195.128 186.961C196.967 187.461 198.744 187.185 201.017 187.033C203.105 186.893 204.565 186.213 206.576 186.12C209.626 185.98 212.462 186.996 215.699 187.399C218.036 187.69 221.15 188.406 223.675 189.224C226.158 190.03 228.517 190.75 229.297 190.882C229.829 190.972 229.282 190.62 228.369 190.147C226.149 188.995 223.876 187.936 221.693 186.717C221.339 186.519 220.996 186.323 220.652 186.112C219.865 185.49 218.765 184.39 217.632 183.257" stroke="black" stroke-width="2" stroke-linecap="round"/>
<path d="M144.543 216.224C144.373 218.058 143.927 220.019 143.806 220.893C143.815 221.86 143.842 222.732 143.917 223.373C144.012 223.765 144.115 224.146 144.226 224.536C144.907 226.942 145.766 229.298 146.521 231.682C146.832 232.662 146.97 233.298 146.657 232.858C146.199 232.213 145.04 230.036 143.854 227.71C142.648 225.347 140.952 222.639 139.505 220.78C137.501 218.206 136.214 215.482 133.958 213.425C132.471 212.068 130.958 211.517 129.383 210.14C127.667 208.639 126.215 207.578 125.269 205.924C124.119 203.916 121.121 200.72 121.038 193.1C120.928 183.06 120.996 180.779 122.076 179.059C124.14 175.774 126.215 171.749 132.44 170.277C137.542 169.07 142.898 167.718 147.767 171.368C152.742 175.097 156.788 180.387 158.215 183.579C159.015 185.366 159.27 189.669 158.668 192.65C158.322 194.367 157.411 196.079 156.206 197.793C155 199.51 152.995 201.005 149.968 205.157C148.254 207.508 147.124 208.941 146.199 211.01C145.4 212.797 144.709 214.448 144.543 216.224Z" fill="#F3E30A"/>
<path d="M143.801 220.932C143.914 220.079 144.37 218.086 144.543 216.224C144.709 214.448 145.4 212.797 146.199 211.01C147.124 208.941 148.254 207.508 149.968 205.157C152.995 201.005 155 199.51 156.206 197.793C157.411 196.079 158.322 194.367 158.668 192.65C159.27 189.669 159.015 185.366 158.215 183.579C156.788 180.387 152.742 175.097 147.767 171.368C142.898 167.718 137.542 169.07 132.44 170.277C126.215 171.749 124.14 175.774 122.076 179.059C120.996 180.779 120.928 183.06 121.038 193.1C121.121 200.72 124.119 203.916 125.269 205.924C126.215 207.578 127.667 208.639 129.383 210.14C130.958 211.517 132.471 212.068 133.958 213.425C136.214 215.482 137.501 218.206 139.505 220.78C140.952 222.639 142.648 225.347 143.854 227.71C145.04 230.036 146.199 232.213 146.657 232.858C146.97 233.298 146.832 232.662 146.521 231.682C145.766 229.298 144.907 226.942 144.226 224.536C144.115 224.146 144.012 223.765 143.917 223.373C143.801 222.376 143.801 220.82 143.801 219.217" stroke="black" stroke-width="2" stroke-linecap="round"/>
<path d="M35.6098 180.386C33.7735 180.537 31.7647 180.439 30.8834 180.471C29.9326 180.648 29.0785 180.826 28.4604 181.011C28.0912 181.172 27.7335 181.34 27.3681 181.517C25.1177 182.606 22.9462 183.86 20.7301 185.018C19.8183 185.494 19.216 185.74 19.5952 185.356C20.1509 184.793 22.094 183.274 24.1778 181.702C26.2962 180.103 28.6685 177.963 30.2479 176.215C32.4346 173.795 34.8937 172.054 36.5279 169.476C37.6056 167.775 37.8859 166.19 38.9688 164.399C40.1482 162.449 40.9413 160.835 42.4057 159.616C44.1836 158.135 46.8104 154.628 54.3002 153.222C64.1688 151.371 66.4273 151.041 68.3084 151.806C71.9021 153.268 76.2262 154.613 78.7568 160.488C80.831 165.303 83.0924 170.343 80.3441 175.772C77.5358 181.319 73.0277 186.221 70.1328 188.181C68.5115 189.279 64.3177 190.278 61.2778 190.203C59.5271 190.159 57.6827 189.56 55.7851 188.671C53.8852 187.782 52.0652 186.067 47.4503 183.807C44.8375 182.527 43.2295 181.663 41.0321 181.111C39.1331 180.634 37.3872 180.24 35.6098 180.386Z" fill="#F3E30A"/>
<path d="M30.844 180.472C31.7037 180.436 33.7457 180.539 35.6098 180.386C37.3872 180.24 39.1331 180.634 41.0321 181.111C43.2295 181.663 44.8375 182.527 47.4503 183.807C52.0652 186.067 53.8852 187.782 55.7851 188.671C57.6827 189.56 59.5271 190.159 61.2778 190.203C64.3177 190.278 68.5115 189.279 70.1328 188.181C73.0277 186.221 77.5358 181.319 80.3441 175.772C83.0924 170.343 80.831 165.303 78.7568 160.488C76.2262 154.613 71.9021 153.268 68.3084 151.806C66.4273 151.041 64.1688 151.371 54.3002 153.222C46.8104 154.628 44.1836 158.135 42.4057 159.616C40.9413 160.835 40.1482 162.449 38.9688 164.399C37.8859 166.19 37.6056 167.775 36.5279 169.476C34.8937 172.054 32.4346 173.795 30.2479 176.215C28.6685 177.963 26.2962 180.103 24.1778 181.702C22.094 183.274 20.1509 184.793 19.5952 185.356C19.216 185.74 19.8183 185.494 20.7301 185.018C22.9462 183.86 25.1177 182.606 27.3681 181.517C27.7335 181.34 28.0912 181.172 28.4604 181.011C29.4216 180.723 30.9538 180.453 32.5324 180.174" stroke="black" stroke-width="2" stroke-linecap="round"/>
<path d="M76.3005 209.001C74.6265 209.77 72.7052 210.365 71.888 210.697C71.0552 211.189 70.3134 211.648 69.796 212.033C69.5041 212.311 69.2254 212.591 68.9426 212.882C67.2003 214.675 65.5888 216.597 63.9023 218.443C63.2084 219.202 62.7267 219.639 62.9516 219.149C63.2812 218.429 64.5874 216.337 66.0079 214.147C67.4519 211.921 68.9492 209.098 69.8354 206.915C71.0625 203.893 72.778 201.417 73.4317 198.435C73.8628 196.468 73.5839 194.882 73.9891 192.829C74.4304 190.594 74.6237 188.806 75.5827 187.159C76.747 185.159 78.0157 180.965 84.5732 177.083C93.2133 171.968 95.2229 170.886 97.2522 170.961C101.129 171.106 105.653 170.891 110.04 175.546C113.636 179.361 117.485 183.324 116.759 189.365C116.017 195.538 113.458 201.687 111.408 204.519C110.26 206.105 106.66 208.477 103.778 209.447C102.118 210.005 100.18 210.072 98.0928 209.886C96.0032 209.7 93.7065 208.711 88.5969 208.166C85.704 207.857 83.8974 207.595 81.6437 207.828C79.6962 208.029 77.921 208.256 76.3005 209.001Z" fill="#F3E30A"/>
<path d="M71.8516 210.712C72.6469 210.383 74.601 209.782 76.3005 209.001C77.921 208.256 79.6962 208.029 81.6437 207.828C83.8974 207.595 85.704 207.857 88.5969 208.166C93.7065 208.711 96.0032 209.7 98.0928 209.886C100.18 210.072 102.118 210.005 103.778 209.447C106.66 208.477 110.26 206.105 111.408 204.519C113.458 201.687 116.017 195.538 116.759 189.365C117.485 183.324 113.636 179.361 110.04 175.546C105.653 170.891 101.129 171.106 97.2522 170.961C95.2229 170.886 93.2133 171.968 84.5732 177.083C78.0157 180.965 76.747 185.159 75.5827 187.159C74.6237 188.806 74.4304 190.594 73.9891 192.829C73.5839 194.882 73.8628 196.468 73.4317 198.435C72.778 201.417 71.0625 203.893 69.8354 206.915C68.9492 209.098 67.4519 211.921 66.0079 214.147C64.5874 216.337 63.2812 218.429 62.9516 219.149C62.7267 219.639 63.2084 219.202 63.9023 218.443C65.5888 216.597 67.2003 214.675 68.9426 212.882C69.2254 212.591 69.5041 212.311 69.796 212.033C70.6007 211.434 71.9481 210.656 73.3363 209.855" stroke="black" stroke-width="2" stroke-linecap="round"/>
<path d="M19.9463 85.0833C18.2186 84.4436 16.4393 83.5058 15.6271 83.1624C14.6904 82.9213 13.8412 82.7215 13.2028 82.6281C12.8 82.6181 12.4049 82.619 11.9991 82.6249C9.49921 82.6608 7.00092 82.8802 4.50333 82.9926C3.47572 83.0389 2.82573 83.0076 3.33178 82.8196C4.07341 82.5441 6.47653 81.9883 9.02952 81.4441C11.6249 80.891 14.6794 79.9539 16.8496 79.0371C19.8543 77.7676 22.8186 77.2294 25.3894 75.5831C27.0847 74.4974 28.009 73.1788 29.747 72.0138C31.6401 70.7449 33.0409 69.6174 34.8835 69.131C37.1206 68.5404 40.9835 66.4718 48.3655 68.3635C58.092 70.856 60.2782 71.5117 61.6597 73.0002C64.2988 75.8441 67.6495 78.8903 67.4602 85.284C67.3051 90.5247 67.2247 96.0481 62.4396 99.8067C57.5501 103.647 51.3924 106.185 47.9405 106.738C46.0072 107.048 41.7843 106.181 39.0608 104.828C37.4925 104.049 36.0743 102.726 34.73 101.119C33.384 99.5094 32.4593 97.1862 29.2319 93.1875C27.4047 90.9235 26.3125 89.4608 24.5542 88.0319C23.0347 86.7971 21.6188 85.7025 19.9463 85.0833Z" fill="#F3E30A"/>
<path d="M15.5908 83.1472C16.3853 83.4773 18.1923 84.4339 19.9463 85.0833C21.6188 85.7025 23.0347 86.7971 24.5542 88.0319C26.3125 89.4608 27.4047 90.9235 29.2319 93.1875C32.4593 97.1862 33.384 99.5094 34.73 101.119C36.0742 102.726 37.4925 104.049 39.0608 104.828C41.7843 106.181 46.0072 107.048 47.9405 106.738C51.3924 106.185 57.5501 103.647 62.4396 99.8067C67.2247 96.0481 67.3051 90.5247 67.4602 85.284C67.6495 78.8903 64.2988 75.8441 61.6597 73.0002C60.2782 71.5117 58.092 70.856 48.3655 68.3635C40.9835 66.4718 37.1206 68.5404 34.8835 69.131C33.0409 69.6174 31.6401 70.7449 29.747 72.0138C28.009 73.1788 27.0847 74.4974 25.3894 75.5831C22.8186 77.2294 19.8543 77.7677 16.8496 79.0371C14.6794 79.9539 11.6249 80.891 9.02952 81.4441C6.47653 81.9883 4.07341 82.5441 3.33178 82.8196C2.82573 83.0076 3.47572 83.0389 4.50333 82.9926C7.00092 82.8802 9.49921 82.6608 11.9991 82.6249C12.4049 82.619 12.8 82.6181 13.2028 82.6281C14.1956 82.7733 15.6984 83.176 17.2468 83.5909" stroke="black" stroke-width="2" stroke-linecap="round"/>
<path d="M17.7763 141.543C15.9419 141.373 13.9806 140.927 13.1071 140.806C12.14 140.815 11.2679 140.842 10.6272 140.917C10.2355 141.012 9.85409 141.115 9.46361 141.226C7.05823 141.907 4.70183 142.766 2.31846 143.521C1.33783 143.832 0.701889 143.97 1.14205 143.657C1.7871 143.199 3.96447 142.04 6.28964 140.854C8.65341 139.648 11.3613 137.952 13.2202 136.505C15.794 134.501 18.518 133.214 20.5752 130.958C21.9317 129.471 22.4831 127.958 23.8604 126.383C25.3606 124.667 26.4218 123.215 28.0758 122.269C30.0838 121.119 33.2797 118.121 40.8998 118.038C50.9399 117.928 53.2214 117.996 54.941 119.076C58.2263 121.14 62.2512 123.215 63.7232 129.44C64.9297 134.542 66.2816 139.898 62.6324 144.767C58.9035 149.742 53.6126 153.788 50.4213 155.215C48.634 156.015 44.3305 156.27 41.3498 155.668C39.6332 155.322 37.921 154.411 36.2065 153.206C34.4899 152 32.9954 149.995 28.843 146.968C26.4921 145.254 25.0586 144.124 22.9904 143.199C21.2031 142.4 19.5521 141.709 17.7763 141.543Z" fill="#F3E30A"/>
<path d="M13.0681 140.801C13.921 140.914 15.914 141.37 17.7763 141.543C19.5521 141.709 21.2031 142.4 22.9904 143.199C25.0586 144.124 26.4921 145.254 28.843 146.968C32.9954 149.995 34.4899 152 36.2065 153.206C37.921 154.411 39.6332 155.322 41.3498 155.668C44.3305 156.27 48.634 156.015 50.4213 155.215C53.6126 153.788 58.9035 149.742 62.6324 144.767C66.2816 139.898 64.9297 134.542 63.7232 129.44C62.2512 123.215 58.2263 121.14 54.941 119.076C53.2214 117.996 50.9399 117.928 40.8998 118.038C33.2797 118.121 30.0838 121.119 28.0758 122.269C26.4218 123.215 25.3606 124.667 23.8604 126.383C22.4831 127.958 21.9317 129.471 20.5752 130.958C18.518 133.214 15.794 134.501 13.2202 136.505C11.3613 137.952 8.65341 139.648 6.28964 140.854C3.96447 142.04 1.7871 143.199 1.14205 143.657C0.701889 143.97 1.33783 143.832 2.31846 143.521C4.70183 142.766 7.05823 141.907 9.46361 141.226C9.85409 141.115 10.2355 141.012 10.6272 140.917C11.6237 140.801 13.1795 140.801 14.7825 140.801" stroke="black" stroke-width="2" stroke-linecap="round"/>
<path d="M243.224 106.457C245.058 106.627 247.019 107.073 247.893 107.194C248.86 107.185 249.732 107.158 250.373 107.083C250.765 106.988 251.146 106.885 251.536 106.774C253.942 106.093 256.298 105.234 258.682 104.479C259.662 104.168 260.298 104.03 259.858 104.343C259.213 104.801 257.036 105.96 254.71 107.146C252.347 108.352 249.639 110.048 247.78 111.495C245.206 113.499 242.482 114.786 240.425 117.042C239.068 118.529 238.517 120.042 237.14 121.617C235.639 123.333 234.578 124.785 232.924 125.731C230.916 126.881 227.72 129.879 220.1 129.962C210.06 130.072 207.779 130.004 206.059 128.924C202.774 126.86 198.749 124.785 197.277 118.56C196.07 113.458 194.718 108.102 198.368 103.233C202.097 98.2576 207.387 94.2123 210.579 92.7849C212.366 91.9854 216.669 91.7302 219.65 92.3319C221.367 92.6785 223.079 93.5893 224.793 94.7938C226.51 95.9999 228.005 98.0046 232.157 101.032C234.508 102.746 235.941 103.876 238.01 104.801C239.797 105.6 241.448 106.291 243.224 106.457Z" fill="#F3E30A"/>
<path d="M247.932 107.199C247.079 107.086 245.086 106.63 243.224 106.457C241.448 106.291 239.797 105.6 238.01 104.801C235.941 103.876 234.508 102.746 232.157 101.032C228.005 98.0046 226.51 95.9999 224.793 94.7938C223.079 93.5893 221.367 92.6785 219.65 92.3319C216.669 91.7302 212.366 91.9854 210.579 92.7849C207.387 94.2123 202.097 98.2576 198.368 103.233C194.718 108.102 196.07 113.458 197.277 118.56C198.749 124.785 202.774 126.86 206.059 128.924C207.779 130.004 210.06 130.072 220.1 129.962C227.72 129.879 230.916 126.881 232.924 125.731C234.578 124.785 235.639 123.333 237.14 121.617C238.517 120.042 239.068 118.529 240.425 117.042C242.482 114.786 245.206 113.499 247.78 111.495C249.639 110.048 252.347 108.352 254.71 107.146C257.036 105.96 259.213 104.801 259.858 104.343C260.298 104.03 259.662 104.168 258.682 104.479C256.298 105.234 253.942 106.093 251.536 106.774C251.146 106.885 250.765 106.988 250.373 107.083C249.376 107.199 247.82 107.199 246.217 107.199" stroke="black" stroke-width="2" stroke-linecap="round"/>
</g>
<defs>
<filter id="filter0_i_3_36" x="-0.00012207" y="-0.000137329" width="261" height="238" filterUnits="userSpaceOnUse" color-interpolation-filters="sRGB">
<feFlood flood-opacity="0" result="BackgroundImageFix"/>
<feBlend mode="normal" in="SourceGraphic" in2="BackgroundImageFix" result="shape"/>
<feColorMatrix in="SourceAlpha" type="matrix" values="0 0 0 0 0 0 0 0 0 0 0 0 0 0 0 0 0 0 127 0" result="hardAlpha"/>
<feOffset dy="4"/>
<feGaussianBlur stdDeviation="7.5"/>
<feComposite in2="hardAlpha" operator="arithmetic" k2="-1" k3="1"/>
<feColorMatrix type="matrix" values="0 0 0 0 0 0 0 0 0 0 0 0 0 0 0 0 0 0 0.25 0"/>
<feBlend mode="normal" in2="shape" result="effect1_innerShadow_3_36"/>
</filter>
<linearGradient id="paint0_linear_3_36" x1="116" y1="87" x2="165.5" y2="134.5" gradientUnits="userSpaceOnUse">
<stop stop-color="#F9EDD5"/>
<stop offset="0.544954" stop-color="#FFFAEF"/>
<stop offset="1" stop-color="#F6F0E5"/>
</linearGradient>
</defs>
</svg>
